<svg width="658" height="123" viewBox="0 0 658 123" fill="none" xmlns="http://www.w3.org/2000/svg">
<path d="M144 0H178.68C200.603 0 213.976 10.7538 213.976 30.195C213.976 49.6363 201.99 60.8037 181.585 60.8037H168.827C162.071 60.8037 159.176 58.46 159.176 55.0125H156.419V96.5125H144.001V0H144ZM201.559 30.0562C201.559 16.4062 193.01 10.69 176.465 10.69H156.417V50.1125H176.465C193.01 50.1125 201.559 44.12 201.559 30.0562Z" fill="white"/>
<path d="M222.289 60.8025C222.289 37.7775 237.592 23.4387 258.411 23.4387C279.23 23.4387 294.535 37.5012 294.535 60.8025C294.535 84.1037 279.092 98.1662 258.411 98.1662C237.73 98.1662 222.289 84.2412 222.289 60.8025ZM282.162 60.8025C282.162 44.6212 271.07 34.965 258.412 34.965C245.102 34.965 234.662 44.36 234.662 60.8025C234.662 77.245 244.58 86.64 258.412 86.64C272.245 86.64 282.162 76.7225 282.162 60.8025Z" fill="white"/>
<path d="M366.6 95.8225L336.454 25.0925H350.186L372.591 80.3887H375.072C375.072 75.425 376.175 72.53 377.554 68.945L395.271 25.0925H408.727L368.744 122.156H355.996L366.6 95.8225Z" fill="white"/>
<path d="M423.5 25.0938H435.918V39.1575H438.538C441.295 29.92 449.154 23.44 459.219 23.44C468.732 23.44 476.04 29.0925 478.659 38.1925H481.279C485.139 28.6788 493.136 23.44 503.752 23.44C518.781 23.44 528.294 33.78 528.294 53.2212V96.5137H515.876V55.1512C515.876 41.3637 511.611 33.9188 500.858 33.9188C488.035 33.9188 482.731 44.535 482.731 57.7713V96.5137H470.589V53.635C470.589 41.2262 465.285 33.9188 455.082 33.9188C442.397 33.9188 435.918 45.5 435.918 59.2875V96.5137H423.5V25.0938Z" fill="white"/>
<path d="M623.844 25.0938H657.347V36.1325H630.057V38.7525C633.917 39.0288 636.261 40.6825 636.261 45.37V96.5125H623.844V25.0938Z" fill="white"/>
<path d="M309.309 0H321.681V96.5125H309.309V0Z" fill="white"/>
<path d="M577.885 98.1662C572.95 98.1662 568.28 97.2637 564.004 95.485C559.792 93.7325 556.076 91.18 552.956 87.895C549.811 84.5837 547.364 80.6212 545.681 76.12C543.946 71.4787 543.067 66.3625 543.067 60.9137C543.067 55.465 543.932 50.4312 545.637 45.7837C547.299 41.2575 549.712 37.2612 552.814 33.9062C555.91 30.5575 559.595 27.95 563.766 26.1562C568.032 24.3212 572.691 23.3912 577.612 23.3912C582.219 23.3912 586.54 24.2287 590.455 25.8812C594.262 27.4887 597.609 29.83 600.4 32.84C603.17 35.8275 605.321 39.3962 606.794 43.445C608.29 47.5587 609.049 52.07 609.049 56.855V63.1362H564.087C559.436 63.1362 556.442 62.4125 556.085 58.9437H554.95V63.3475C554.95 70.3062 557.141 76.2562 561.286 80.5537C565.411 84.83 571.104 87.0912 577.746 87.0912C582.404 87.0912 586.539 85.9912 590.037 83.8212C593.571 81.6287 596.59 78.2625 599.01 73.8162L599.36 73.1725L609.444 78.6025L609.095 79.25C605.766 85.4325 601.352 90.1975 595.976 93.4125C590.702 96.5662 584.614 98.1662 577.881 98.1662H577.885ZM596.861 53.4175C596.536 47.7112 594.644 42.8987 591.367 39.4625C587.912 35.84 583.062 33.925 577.344 33.925C571.625 33.925 566.416 35.8175 562.452 39.3987C558.605 42.875 556.15 47.7075 555.325 53.4162H596.861V53.4175Z" fill="white"/>
<path fill-rule="evenodd" clip-rule="evenodd" d="M1.40103 22.9978L10.2872 29.397L33.252 12.8136L44.6624 20.9863L53.5937 14.5634C46.978 9.82096 39.8801 4.74804 33.2478 0L1.40103 22.9978Z" fill="white"/>
<path fill-rule="evenodd" clip-rule="evenodd" d="M60.784 32.5833L114.277 71.0281V58.2413L69.711 26.1673L60.784 32.5833Z" fill="white"/>
<path fill-rule="evenodd" clip-rule="evenodd" d="M0 39.7594L44.4332 71.7548C47.4067 69.6143 50.3851 67.477 53.3632 65.3401L0 26.9536V39.7594Z" fill="white"/>
<path fill-rule="evenodd" clip-rule="evenodd" d="M81.0241 85.1864L69.7809 77.1172L60.8594 83.5459C67.574 88.3628 74.2981 93.1796 81.0271 98L112.886 74.9937L104.002 68.5938L81.0241 85.1864Z" fill="white"/>
<path fill-rule="evenodd" clip-rule="evenodd" d="M25.1321 40.1743C28.1033 42.3135 31.0732 44.4534 34.0451 46.5932L81.0241 12.8123L103.988 29.3957L112.872 22.9935L81.0271 0L25.1321 40.1743Z" fill="white"/>
<path fill-rule="evenodd" clip-rule="evenodd" d="M95.9971 40.1272C98.9382 42.2464 101.883 44.3643 104.825 46.4898L114.277 39.7034V26.95C108.182 31.3411 102.097 35.739 95.9971 40.1272Z" fill="white"/>
<path fill-rule="evenodd" clip-rule="evenodd" d="M0 58.2937V71.0365C6.0642 66.6684 12.0895 62.3674 18.1554 58.0087C15.1845 55.8686 12.2231 53.7362 9.26298 51.6082C6.17293 53.8355 3.08548 56.0657 0 58.2937Z" fill="white"/>
<path fill-rule="evenodd" clip-rule="evenodd" d="M33.2494 85.188L10.2807 68.5971L1.39676 74.9993L33.2478 98L88.8168 57.9747C85.8636 55.8473 82.9201 53.7317 79.9793 51.6161L33.2494 85.188Z" fill="white"/>
</svg>
